/* XPM */
static char * kill_xpm[] = {
"24 24 196 2",
"  	c None",
". 	c #CC6646",
"+ 	c #CE6949",
"@ 	c #CE694A",
"# 	c #CD5632",
"$ 	c #E5410E",
"% 	c #E53C07",
"& 	c #E53C08",
"* 	c #E53D09",
"= 	c #E53E0A",
"- 	c #DD4619",
"; 	c #E13401",
"> 	c #E13502",
", 	c #E23705",
"' 	c #E23907",
") 	c #E23A09",
"! 	c #E23B0A",
"~ 	c #DA4116",
"{ 	c #DE3302",
"] 	c #DF3505",
"^ 	c #DF3809",
"/ 	c #E03B0D",
"( 	c #E03D0F",
"_ 	c #E03E11",
": 	c #E03F11",
"< 	c #D73D14",
"[ 	c #DB3103",
"} 	c #DC3508",
"| 	c #DD390D",
"1 	c #DE3D12",
"2 	c #DE3F14",
"3 	c #DE3F15",
"4 	c #DE4016",
"5 	c #D53A13",
"6 	c #D92F05",
"7 	c #DA340A",
"8 	c #DA3810",
"9 	c #DB3C14",
"0 	c #DB3E16",
"a 	c #DC3E17",
"b 	c #DB3E17",
"c 	c #D03612",
"d 	c #D62E06",
"e 	c #D7330C",
"f 	c #D83811",
"g 	c #D83B15",
"h 	c #D93C17",
"i 	c #D73B17",
"j 	c #D59E91",
"k 	c #D29283",
"l 	c #D83C17",
"m 	c #CE3310",
"n 	c #D32B06",
"o 	c #D4300C",
"p 	c #D53512",
"q 	c #D63815",
"r 	c #D43816",
"s 	c #D29A8C",
"t 	c #F2F2F2",
"u 	c #F3F2F2",
"v 	c #D08D7E",
"w 	c #D53916",
"x 	c #D43916",
"y 	c #CB300E",
"z 	c #D02906",
"A 	c #D12E0C",
"B 	c #D23311",
"C 	c #D33514",
"D 	c #BB614F",
"E 	c #F0F0F0",
"F 	c #F0EFEF",
"G 	c #CC8679",
"H 	c #C82B0C",
"I 	c #CD2606",
"J 	c #CE2B0B",
"K 	c #CF2F11",
"L 	c #D03214",
"M 	c #BD2E12",
"N 	c #B1847B",
"O 	c #ECECEC",
"P 	c #EDEDED",
"Q 	c #EDECEB",
"R 	c #C4280B",
"S 	c #CA2406",
"T 	c #CB290B",
"U 	c #CC2D10",
"V 	c #CD2F13",
"W 	c #CD3014",
"X 	c #BA2C12",
"Y 	c #AF847C",
"Z 	c #EAEAEA",
"` 	c #EBEBEB",
" .	c #C12309",
"..	c #C72105",
"+.	c #C8250B",
"@.	c #C92A0F",
"#.	c #CA2C12",
"$.	c #CA2D13",
"%.	c #B62811",
"&.	c #C5AAA6",
"*.	c #E9E9E9",
"=.	c #B62911",
"-.	c #BE2008",
";.	c #C41F05",
">.	c #C5230A",
",.	c #C6270F",
"'.	c #C72911",
").	c #C72A12",
"!.	c #C62B12",
"~.	c #C3786D",
"{.	c #E7E6E5",
"].	c #E6E6E6",
"^.	c #BA1D06",
"/.	c #C11C05",
"(.	c #C2200A",
"_.	c #C3240E",
":.	c #C42611",
"<.	c #C32711",
"[.	c #C17468",
"}.	c #E4E3E3",
"|.	c #E4E4E4",
"1.	c #E3E3E3",
"2.	c #B81804",
"3.	c #BE1905",
"4.	c #BF1E09",
"5.	c #C0210D",
"6.	c #C12310",
"7.	c #B25448",
"8.	c #E2E0E0",
"9.	c #E2E2E2",
"0.	c #AB8480",
"a.	c #B41202",
"b.	c #BB1605",
"c.	c #BC1A09",
"d.	c #BD1E0D",
"e.	c #BE200F",
"f.	c #A71F10",
"g.	c #B0918E",
"h.	c #E0E0E0",
"i.	c #AB8580",
"j.	c #A91E0E",
"k.	c #AF1001",
"l.	c #B81404",
"m.	c #B91808",
"n.	c #BA1B0C",
"o.	c #BB1D0E",
"p.	c #BB1E0F",
"q.	c #A31C0F",
"r.	c #AE8F8C",
"s.	c #A9847F",
"t.	c #A61B0D",
"u.	c #AC0E02",
"v.	c #B51003",
"w.	c #B61407",
"x.	c #B7170B",
"y.	c #B8190D",
"z.	c #B81A0E",
"A.	c #A0180E",
"B.	c #A3180D",
"C.	c #AA0C02",
"D.	c #B20D02",
"E.	c #B31005",
"F.	c #B41309",
"G.	c #B4160B",
"H.	c #B5170C",
"I.	c #B5170D",
"J.	c #A80A02",
"K.	c #AE0901",
"L.	c #AF0B04",
"M.	c #B00E06",
"N.	c #B11008",
"O.	c #B11109",
"P.	c #B1120A",
"Q.	c #A50702",
"R.	c #AB0601",
"S.	c #AC0702",
"T.	c #AC0803",
"U.	c #AD0A05",
"V.	c #AD0B06",
"W.	c #AD0B07",
"X.	c #8F0503",
"Y.	c #A80300",
"Z.	c #A80401",
"`.	c #A90502",
" +	c #A90603",
".+	c #2F0202",
"++	c #760808",
"@+	c #820A0A",
"#+	c #830C0C",
"$+	c #840E0E",
"%+	c #851111",
"&+	c #881414",
"*+	c #881717",
"=+	c #891919",
"-+	c #8A1B1B",
";+	c #8B1D1D",
"    . + + + + + + @ @ @ @ @ @ + + + + + + .     ",
"  # $ % & * = = = = = = = = = = = = * & % $ #   ",
"  - ; > , ' ) ! ! ! ! ! ! ! ! ! ! ) ' , > ; -   ",
"  ~ { ] ^ / ( _ : : : : : : : : _ ( / ^ ] { ~   ",
"  < [ } | 1 2 3 4 4 4 4 4 4 4 4 3 2 1 | } [ <   ",
"  5 6 7 8 9 0 a b b a a a a b b a 0 9 8 7 6 5   ",
"  c d e f g h i j k l h h l k j i h g f e d c   ",
"  m n o p q r s t u v w w v u t s x q p o n m   ",
"  y z A B C D E E E F G G F E E E D C B A z y   ",
"  H I J K L M N O P P Q Q P P O N M L K J I H   ",
"  R S T U V W X Y Z ` ` ` ` Z Y X W V U T S R   ",
"   ...+.@.#.$.$.%.&.*.*.*.*.&.=.$.$.#.@.+... .  ",
"  -.;.>.,.'.).!.~.{.].].].].{.~.!.).'.,.>.;.-.  ",
"  ^./.(._.:.<.[.}.|.|.1.1.|.|.}.[.<.:._.(./.^.  ",
"  2.3.4.5.6.7.8.9.9.9.0.0.9.9.9.8.7.6.5.4.3.2.  ",
"  a.b.c.d.e.f.g.h.h.i.j.j.i.h.h.g.f.e.d.c.b.a.  ",
"  k.l.m.n.o.p.q.r.s.t.p.p.t.s.r.q.p.o.n.m.l.k.  ",
"  u.v.w.x.y.z.z.A.B.z.z.z.z.B.A.z.z.y.x.w.v.u.  ",
"  C.D.E.F.G.H.I.I.I.I.I.I.I.I.I.I.H.G.F.E.D.C.  ",
"  J.K.L.M.N.O.P.P.P.P.P.P.P.P.P.P.O.N.M.L.K.J.  ",
"  Q.R.S.T.U.V.V.W.W.W.W.W.W.W.W.V.V.U.T.S.R.Q.  ",
"  X.Y.Z.Z.`. + + + + + + + + + + + +`.Z.Z.Y.X.  ",
"  .+++@+#+$+%+&+*+=+-+;+;+-+=+*+&+%+$+#+@+++.+  ",
"                                                "};
