/* XPM */
static char * packagem_xpm[] = {
"24 24 368 2",
"  	c None",
". 	c #B7995F",
"+ 	c #CDA250",
"@ 	c #C99E4B",
"# 	c #CA9F4C",
"$ 	c #CAA04C",
"% 	c #CBA14C",
"& 	c #CCA24D",
"* 	c #CEA552",
"= 	c #D4B363",
"- 	c #D5B563",
"; 	c #D6B967",
"> 	c #D0AF62",
", 	c #CFA755",
"' 	c #CEA755",
") 	c #CEA654",
"! 	c #CEA554",
"~ 	c #CEA553",
"{ 	c #CDA453",
"] 	c #CDA352",
"^ 	c #B9985B",
"/ 	c #D2AF6D",
"( 	c #F6FFF0",
"_ 	c #EBF8D8",
": 	c #EBF7D7",
"< 	c #E6F1D4",
"[ 	c #D9C397",
"} 	c #D4B567",
"| 	c #D6B96B",
"1 	c #D8BB6E",
"2 	c #D0B065",
"3 	c #CFA757",
"4 	c #CFA756",
"5 	c #CEA656",
"6 	c #CEA555",
"7 	c #CDA455",
"8 	c #CDA354",
"9 	c #CCA253",
"0 	c #B59458",
"a 	c #D3AE72",
"b 	c #CBE28E",
"c 	c #BFD872",
"d 	c #BCD76C",
"e 	c #B7D461",
"f 	c #C5DC7E",
"g 	c #BCD76B",
"h 	c #DEC8A2",
"i 	c #D6B56A",
"j 	c #D7BA6F",
"k 	c #D9BC72",
"l 	c #D2B067",
"m 	c #CFA656",
"n 	c #CFA556",
"o 	c #CEA455",
"p 	c #CDA355",
"q 	c #CCA254",
"r 	c #CBA153",
"s 	c #CA9F52",
"t 	c #B39156",
"u 	c #CFAB6C",
"v 	c #FDFDFF",
"w 	c #FBF9FF",
"x 	c #FDFCFF",
"y 	c #FEFCFF",
"z 	c #FCFAFF",
"A 	c #DEC99F",
"B 	c #D6B66B",
"C 	c #D9BD73",
"D 	c #DBBF77",
"E 	c #D2B26A",
"F 	c #CEA556",
"G 	c #C99D50",
"H 	c #B18F54",
"I 	c #D2AD70",
"J 	c #A3A4A7",
"K 	c #9B9B9B",
"L 	c #B9B9B9",
"M 	c #C2C2C2",
"N 	c #9E9E9E",
"O 	c #A1A2A2",
"P 	c #DDC89F",
"Q 	c #D6B66E",
"R 	c #DAC079",
"S 	c #DCC27C",
"T 	c #D2B26C",
"U 	c #CEA456",
"V 	c #CDA456",
"W 	c #CCA255",
"X 	c #CBA154",
"Y 	c #CA9F53",
"Z 	c #C89D51",
"` 	c #C79A50",
" .	c #AF8C52",
"..	c #D1AC6F",
"+.	c #9D9FA1",
"@.	c #F6F6F6",
"#.	c #F3F3F3",
"$.	c #F4F4F4",
"%.	c #9D9D9D",
"&.	c #DCC69E",
"*.	c #D6B66F",
"=.	c #DBC17D",
"-.	c #DDC380",
";.	c #D2B26E",
">.	c #CCA355",
",.	c #CBA255",
"'.	c #C99F53",
").	c #C69B50",
"!.	c #C5984E",
"~.	c #AC8950",
"{.	c #C3964F",
"].	c #C49D5D",
"^.	c #C69F5D",
"/.	c #C6A15E",
"(.	c #C8A25F",
"_.	c #C8A360",
":.	c #CAA460",
"<.	c #C9A158",
"[.	c #D5B571",
"}.	c #DBC17E",
"|.	c #DCC280",
"1.	c #D1B16D",
"2.	c #CBA054",
"3.	c #CAA054",
"4.	c #CAA053",
"5.	c #C99E53",
"6.	c #C89D52",
"7.	c #C5994F",
"8.	c #C4954D",
"9.	c #AA854E",
"0.	c #BA8C48",
"a.	c #9F753D",
"b.	c #A57C40",
"c.	c #A2793F",
"d.	c #A27A40",
"e.	c #9E753D",
"f.	c #9C733C",
"g.	c #B78D4A",
"h.	c #D3B26D",
"i.	c #D9BD79",
"j.	c #DABF7B",
"k.	c #CFAD6A",
"l.	c #C99D52",
"m.	c #C89C52",
"n.	c #C79C51",
"o.	c #C69A50",
"p.	c #C3954E",
"q.	c #C1934C",
"r.	c #A8824D",
"s.	c #BC8D49",
"t.	c #AC7F42",
"u.	c #B48848",
"v.	c #BA8E4B",
"w.	c #C79A51",
"x.	c #C89B52",
"y.	c #C79B51",
"z.	c #D1B06A",
"A.	c #D6BA74",
"B.	c #D8BC76",
"C.	c #CDAB67",
"D.	c #C69A51",
"E.	c #C69B51",
"F.	c #C59950",
"G.	c #C49750",
"H.	c #C1924D",
"I.	c #BF904B",
"J.	c #A67F4B",
"K.	c #BE8D4A",
"L.	c #C2934D",
"M.	c #C59750",
"N.	c #D0AE68",
"O.	c #D5B76E",
"P.	c #D7B970",
"Q.	c #CBA863",
"R.	c #C2944E",
"S.	c #BF8F4B",
"T.	c #BD8D49",
"U.	c #A37C49",
"V.	c #BB8A48",
"W.	c #BD8C49",
"X.	c #C0914D",
"Y.	c #C1924E",
"Z.	c #C1934F",
"`.	c #CEAB65",
" +	c #D3B468",
".+	c #D4B66B",
"++	c #C9A560",
"@+	c #A07946",
"#+	c #B98746",
"$+	c #BA8947",
"%+	c #BC8B49",
"&+	c #BD8D4B",
"*+	c #BF8F4C",
"=+	c #BF904C",
"-+	c #CCA861",
";+	c #D1B164",
">+	c #D2B265",
",+	c #C7A15C",
"'+	c #C3934E",
")+	c #C2924D",
"!+	c #C0904C",
"~+	c #BF8E4A",
"{+	c #BD8C48",
"]+	c #9E7544",
"^+	c #B68344",
"/+	c #B88646",
"(+	c #BA8847",
"_+	c #BB8949",
":+	c #BC8B4A",
"<+	c #BD8C4B",
"[+	c #BE8D4B",
"}+	c #CAA55D",
"|+	c #CFAC5E",
"1+	c #D1AF62",
"2+	c #C59F5A",
"3+	c #AA7E43",
"4+	c #906939",
"5+	c #926A3A",
"6+	c #936B3A",
"7+	c #916839",
"8+	c #906737",
"9+	c #865F34",
"0+	c #B07E42",
"a+	c #9B7342",
"b+	c #B48042",
"c+	c #B58244",
"d+	c #B78545",
"e+	c #B98747",
"f+	c #BA8848",
"g+	c #BA8948",
"h+	c #C9A35E",
"i+	c #D0AD61",
"j+	c #D1B064",
"k+	c #C49D5A",
"l+	c #9E743E",
"m+	c #B88848",
"n+	c #B78747",
"o+	c #886235",
"p+	c #B78546",
"q+	c #A2743D",
"r+	c #A9783E",
"s+	c #996F3F",
"t+	c #B17C40",
"u+	c #B37E41",
"v+	c #B48043",
"w+	c #B68244",
"x+	c #B78445",
"y+	c #B88547",
"z+	c #D0AF65",
"A+	c #D2B269",
"B+	c #C49D5C",
"C+	c #9C6F3B",
"D+	c #A2743E",
"E+	c #B28144",
"F+	c #7E5830",
"G+	c #A97940",
"H+	c #9F703A",
"I+	c #A6743D",
"J+	c #976B3D",
"K+	c #AF783E",
"L+	c #B17A3F",
"M+	c #B27D41",
"N+	c #B37E42",
"O+	c #B58144",
"P+	c #B68144",
"Q+	c #C8A260",
"R+	c #D1B16A",
"S+	c #D3B36D",
"T+	c #C39C5E",
"U+	c #996C3A",
"V+	c #B48144",
"W+	c #7B552F",
"X+	c #79542E",
"Y+	c #8A6134",
"Z+	c #B07C40",
"`+	c #9D6C39",
" @	c #A4713B",
".@	c #94673B",
"+@	c #AC743B",
"@@	c #AD763D",
"#@	c #B07A3F",
"$@	c #B17B40",
"%@	c #B17C41",
"&@	c #B27C41",
"*@	c #C6A061",
"=@	c #D2B36E",
"-@	c #D3B471",
";@	c #C19A5E",
">@	c #956737",
",@	c #AF7A40",
"'@	c #75502B",
")@	c #76502C",
"!@	c #9A6836",
"~@	c #A26D38",
"{@	c #916439",
"]@	c #A9703A",
"^@	c #AA723B",
"/@	c #AB733C",
"(@	c #AC753D",
"_@	c #AD763E",
":@	c #AD773E",
"<@	c #AE773E",
"[@	c #AE783F",
"}@	c #C59E62",
"|@	c #D2B473",
"1@	c #D4B676",
"2@	c #C0985F",
"3@	c #916335",
"4@	c #AB753D",
"5@	c #A9733C",
"6@	c #7F552E",
"7@	c #956434",
"8@	c #9E6937",
"9@	c #906137",
"0@	c #A76D37",
"a@	c #A86E38",
"b@	c #A86F39",
"c@	c #A97039",
"d@	c #A9713A",
"e@	c #AA713A",
"f@	c #C49C62",
"g@	c #D2B577",
"h@	c #D5B77A",
"i@	c #BF975F",
"j@	c #9C6836",
"k@	c #704B29",
"l@	c #704A29",
"m@	c #6F4A29",
"n@	c #704928",
"o@	c #6C4727",
"p@	c #A36A36",
"q@	c #744F2D",
"r@	c #A56934",
"s@	c #A46934",
"t@	c #A56A35",
"u@	c #A56A36",
"v@	c #A66B36",
"w@	c #A66B35",
"x@	c #C19A60",
"y@	c #D2B475",
"z@	c #D3B577",
"A@	c #BB925B",
"B@	c #A76C36",
"C@	c #A66A35",
"D@	c #A56A34",
"E@	c #311F10",
"F@	c #684425",
"G@	c #734B29",
"H@	c #774E2A",
"I@	c #784F2B",
"J@	c #7A502C",
"K@	c #7B512C",
"L@	c #7C522D",
"M@	c #7D532E",
"N@	c #94774D",
"O@	c #A18A5D",
"P@	c #A38B5E",
"Q@	c #90704A",
"R@	c #1E1309",
"S@	c #21140A",
"T@	c #22150B",
"U@	c #23160B",
"V@	c #24160B",
"W@	c #25170B",
"X@	c #2D2315",
"Y@	c #312A1A",
"Z@	c #322A1B",
"`@	c #2B2114",
"                                                ",
"  . + @ # $ % % & * = - ; > , , ' ) ! ~ { ] .   ",
"  ^ / ( _ _ _ : < [ } | 1 2 3 4 4 5 6 7 8 9 ^   ",
"  0 a b c d e f g h i j k l m m n o p q r s 0   ",
"  t u v w x y w z A B C D E m n F o 8 r s G t   ",
"  H I J K L M N O P Q R S T U V V W X Y Z ` H   ",
"   ...+.@.#.$.$.%.&.*.=.-.;.>.>.,.X '.Z ).!. .  ",
"  ~.{.].^./.(._.:.<.[.}.|.1.2.3.4.5.6.).7.8.~.  ",
"  9.0.a.b.c.d.e.f.g.h.i.j.k.l.6.m.n.o.!.p.q.9.  ",
"  r.s.t.u.v.w.x.m.y.z.A.B.C.D.E.D.F.G.p.H.I.r.  ",
"  J.K.I.L.p.{.M.G.G.N.O.P.Q.G.G.M.{.R.H.S.T.J.  ",
"  U.V.W.S.X.Y.Z.R.R.`. +.+++R.R.Z.Y.X.S.W.V.U.  ",
"  @+#+$+%+&+*+=+X.=+-+;+>+,+X.'+L.)+!+~+{+#+@+  ",
"  ]+^+/+(+_+:+<+&+[+}+|+1+2+3+4+5+6+7+8+9+0+]+  ",
"  a+b+c+d+e+f+g+_+_+h+i+j+k+l+m+n+o+p+d+q+r+a+  ",
"  s+t+u+v+w+x+p+/+y+(.z+A+B+C+D+E+F+G+v+H+I+s+  ",
"  J+K+L+M+N+v+O+c+P+Q+R+S+T+U+V+W+X+Y+Z+`+ @J+  ",
"  .@+@@@K+#@$@%@&@M+*@=@-@;@>@,@%@,@'@)@!@~@.@  ",
"  {@]@^@/@(@_@:@<@[@}@|@1@2@3@4@:@_@5@6@7@8@{@  ",
"  9@0@a@b@c@d@e@^@^@f@g@h@i@j@k@k@l@m@n@o@p@9@  ",
"  q@r@s@t@t@u@v@v@w@x@y@z@A@v@B@B@v@w@C@D@r@q@  ",
"  E@F@G@H@I@J@K@L@M@N@O@P@Q@M@L@K@J@I@H@G@F@E@  ",
"    R@S@T@U@V@V@W@W@X@Y@Z@`@W@W@V@V@U@T@S@R@    ",
"                                                "};
