/* XPM */
static char * speedbar_xpm[] = {
"24 24 124 2",
"  	c None",
". 	c #E0E0E0",
"+ 	c #E3E3E3",
"@ 	c #EBEBEB",
"# 	c #848484",
"$ 	c #929292",
"% 	c #F2F2F2",
"& 	c #D1D1D1",
"* 	c #A0A0A0",
"= 	c #989898",
"- 	c #DCDCDC",
"; 	c #EAEAEA",
"> 	c #EDEDED",
", 	c #EEEEEE",
"' 	c #E5E5E5",
") 	c #D3D3D3",
"! 	c #D4D4D4",
"~ 	c #E7E7E7",
"{ 	c #E8E8E8",
"] 	c #E6E6E6",
"^ 	c #E9E9E9",
"/ 	c #E4E4E4",
"( 	c #EFEFEF",
"_ 	c #D6D6D6",
": 	c #858585",
"< 	c #828282",
"[ 	c #DADADA",
"} 	c #949494",
"| 	c #9A9A9A",
"1 	c #D7D7D7",
"2 	c #DFDFDF",
"3 	c #A9A9A9",
"4 	c #B5B5B5",
"5 	c #ECECEC",
"6 	c #C8C8C8",
"7 	c #9D9D9D",
"8 	c #939393",
"9 	c #D9D9D9",
"0 	c #D2D2D2",
"a 	c #BFBFBF",
"b 	c #DDDDDD",
"c 	c #E1E1E1",
"d 	c #B6B6B6",
"e 	c #CFCFCF",
"f 	c #CACACA",
"g 	c #CDCDCD",
"h 	c #DBDBDB",
"i 	c #868686",
"j 	c #E2E2E2",
"k 	c #CCCCCC",
"l 	c #9F9F9F",
"m 	c #D8D8D8",
"n 	c #C9C9C9",
"o 	c #B1B1B1",
"p 	c #C6C6C6",
"q 	c #C2C2C2",
"r 	c #DEDEDE",
"s 	c #8DADDC",
"t 	c #8DAEE0",
"u 	c #84A5D4",
"v 	c #8BAADC",
"w 	c #92B1E1",
"x 	c #91B0E1",
"y 	c #8FAFE0",
"z 	c #5D8ED9",
"A 	c #4E81CD",
"B 	c #165290",
"C 	c #18538F",
"D 	c #5A8CD7",
"E 	c #729DDF",
"F 	c #80A8E3",
"G 	c #78A2E1",
"H 	c #729EE0",
"I 	c #749FE0",
"J 	c #739EE0",
"K 	c #5E90DB",
"L 	c #5D8FDB",
"M 	c #5C8FDB",
"N 	c #598DDA",
"O 	c #578BDA",
"P 	c #5387D7",
"Q 	c #457DCA",
"R 	c #2065AE",
"S 	c #2066AE",
"T 	c #5085D3",
"U 	c #7CA5E2",
"V 	c #94B5E7",
"W 	c #7BA4E2",
"X 	c #97B7E8",
"Y 	c #5489D9",
"Z 	c #5388D9",
"` 	c #5287D9",
" .	c #4F85D8",
"..	c #4C83D7",
"+.	c #497ECD",
"@.	c #427BCE",
"#.	c #4984D1",
"$.	c #4E86D3",
"%.	c #487FD0",
"&.	c #497FD0",
"*.	c #4A80D0",
"=.	c #477ED0",
"-.	c #447CCF",
";.	c #417ACE",
">.	c #AFAFAF",
",.	c #BBBBBB",
"'.	c #C3C3C3",
").	c #969696",
"!.	c #8E8E8E",
"~.	c #D0D0D0",
"{.	c #B9B9B9",
"].	c #ACACAC",
"^.	c #C0C0C0",
"/.	c #BDBDBD",
"(.	c #B8B8B8",
"_.	c #BABABA",
":.	c #BEBEBE",
"<.	c #414141",
"[.	c #999999",
"}.	c #B4B4B4",
"|.	c #AAAAAA",
"1.	c #ADADAD",
"2.	c #B0B0B0",
"3.	c #A8A8A8",
"    . + + + + + + + + + + + + + + + + + + .     ",
"  . @ # $ % % % % % % % % % % % % % % % % % .   ",
"  @ & * = - ; > , , , , , , , , , , > > > > @   ",
"  ' + ) ! ~ . ' { { { { { { { { { ~ ~ ~ ] ] '   ",
"  ^ > - / , , , ( ( ( ( ( ( ( ( , , , , , > ^   ",
"  ^ _ : < ' ( ( ( ( ( ( ( ( ( ( ( ( , , , > ^   ",
"  / [ } | + . 1 ; ; ; ; ; ; ; ; ; ; ; ; ^ ^ /   ",
"  2 ' + ] ' ' ' ' ' ' ' ' ' ' ' ' ' ' ' / / 2   ",
"  ] ^ 3 4 > , , , , 5 , , , , , , , > > > 5 ]   ",
"  + 6 7 8 9 0 a 6 6 & ; ; ; ; ; ; ; ; ; ^ ^ +   ",
"  b c 3 d ] [ e f g 9 ' ' ' ' ' ' ' ' ' / / b   ",
"  h + ' ' / / / / / / / / / / / / / / / + + h   ",
"  . c i $ ^ j j ~ ^ ] ~ ^ ^ ^ ^ ^ ^ ^ { { ~ .   ",
"  - k l = m n o 6 p q 6 . ' ' ' ' ' ' ' / / -   ",
"  _ h n k 2 9 - ! & 0 ! [ 2 2 2 2 2 2 2 r r _   ",
"  s t u v w w w w w w w w w w w w w w x y t s   ",
"  z A B C D E F G H I J K K K K K K L M N O z   ",
"  P Q R S T J H U V W X Y Y Y Y Y Y Z `  ...P   ",
"  +.@.#.$.%.&.*.*.*.*.*.*.*.*.*.*.&.%.=.-.;.+.  ",
"  [ j >.,./ / / / / / / / / / / / / / / + + [   ",
"  1 '.).!.) k p & ) ) m p ) g g p ~.r 2 2 2 1   ",
"  {.m * ].[ p ^.q /.'.^.(.6 o 6 _.:.) 9 9 9 {.  ",
"  <.[.4 }.|.].].1.>.2.o o 2.>.1.].].|.3 3.[.<.  ",
"                                                "};
