/* XPM */
static char * terminal_xpm[] = {
"24 24 274 2",
"  	c None",
". 	c #111112",
"+ 	c #141315",
"@ 	c #131213",
"# 	c #0F0E0F",
"$ 	c #0F0F10",
"% 	c #201E23",
"& 	c #28252B",
"* 	c #262429",
"= 	c #252328",
"- 	c #2D2A30",
"; 	c #2C292F",
"> 	c #2E2A31",
", 	c #2E2A30",
"' 	c #2D2A31",
") 	c #2C2930",
"! 	c #2B282E",
"~ 	c #141415",
"{ 	c #2D2930",
"] 	c #2E2B31",
"^ 	c #2F2B32",
"/ 	c #302C32",
"( 	c #302C33",
"_ 	c #312D33",
": 	c #302D33",
"< 	c #2D2A2F",
"[ 	c #262328",
"} 	c #2E2B32",
"| 	c #312E34",
"1 	c #312E35",
"2 	c #312E36",
"3 	c #2C2A2F",
"4 	c #2B282F",
"5 	c #0E0E0F",
"6 	c #252327",
"7 	c #302D34",
"8 	c #322E36",
"9 	c #332E37",
"0 	c #332F37",
"a 	c #342F38",
"b 	c #332F38",
"c 	c #302E34",
"d 	c #262329",
"e 	c #312D34",
"f 	c #343038",
"g 	c #353139",
"h 	c #36313A",
"i 	c #36323B",
"j 	c #36323A",
"k 	c #353038",
"l 	c #343039",
"m 	c #141416",
"n 	c #101010",
"o 	c #28252A",
"p 	c #2E2932",
"q 	c #353039",
"r 	c #37333D",
"s 	c #38333D",
"t 	c #38333E",
"u 	c #39333E",
"v 	c #39343E",
"w 	c #37333C",
"x 	c #35313A",
"y 	c #322F36",
"z 	c #171518",
"A 	c #111113",
"B 	c #29272D",
"C 	c #322F37",
"D 	c #413D45",
"E 	c #8F8D92",
"F 	c #3A343F",
"G 	c #3A3440",
"H 	c #3B353F",
"I 	c #3A3540",
"J 	c #37323C",
"K 	c #2D2931",
"L 	c #28252C",
"M 	c #252228",
"N 	c #1F1E22",
"O 	c #131214",
"P 	c #2B272E",
"Q 	c #454049",
"R 	c #F4F4F5",
"S 	c #D7D6D8",
"T 	c #524E57",
"U 	c #3B3640",
"V 	c #3C3641",
"W 	c #3C3642",
"X 	c #3A3641",
"Y 	c #37313B",
"Z 	c #2F2A33",
"` 	c #28242B",
" .	c #201D24",
"..	c #1D1B20",
"+.	c #1B181D",
"@.	c #1A181C",
"#.	c #19161A",
"$.	c #171619",
"%.	c #141316",
"&.	c #121112",
"*.	c #151316",
"=.	c #2D2830",
"-.	c #3B3741",
";.	c #848087",
">.	c #E4E3E4",
",.	c #FCFCFC",
"'.	c #88848B",
").	c #3D3843",
"!.	c #36313B",
"~.	c #302B35",
"{.	c #2B262F",
"].	c #262129",
"^.	c #231E26",
"/.	c #221F25",
"(.	c #221E25",
"_.	c #211D24",
":.	c #1F1C22",
"<.	c #1E1B20",
"[.	c #1C191E",
"}.	c #161417",
"|.	c #2E2A32",
"1.	c #39333D",
"2.	c #36303C",
"3.	c #47424D",
"4.	c #E8E8E9",
"5.	c #B6B5B8",
"6.	c #2C2830",
"7.	c #26222A",
"8.	c #27222A",
"9.	c #27222B",
"0.	c #26212A",
"a.	c #252129",
"b.	c #252028",
"c.	c #231F26",
"d.	c #211E25",
"e.	c #201D23",
"f.	c #1E1B21",
"g.	c #19161B",
"h.	c #171519",
"i.	c #2F2B33",
"j.	c #7B777F",
"k.	c #F7F7F8",
"l.	c #F7F7F7",
"m.	c #8E8C91",
"n.	c #28232C",
"o.	c #28242C",
"p.	c #29242D",
"q.	c #29252D",
"r.	c #29252E",
"s.	c #241F27",
"t.	c #1A181D",
"u.	c #19171B",
"v.	c #312D35",
"w.	c #342E38",
"x.	c #3C383F",
"y.	c #F8F8F8",
"z.	c #C1C0C2",
"A.	c #5B595E",
"B.	c #211C25",
"C.	c #252029",
"D.	c #26212B",
"E.	c #2A242E",
"F.	c #2C2630",
"G.	c #2B2630",
"H.	c #29242E",
"I.	c #28242D",
"J.	c #27232B",
"K.	c #201C22",
"L.	c #1C191F",
"M.	c #18161A",
"N.	c #18161B",
"O.	c #211E24",
"P.	c #656268",
"Q.	c #26222B",
"R.	c #3E3941",
"S.	c #605D65",
"T.	c #635E66",
"U.	c #66626A",
"V.	c #413C46",
"W.	c #2D2732",
"X.	c #2E2833",
"Y.	c #2C2731",
"Z.	c #262229",
"`.	c #242027",
" +	c #1E1A20",
".+	c #1A171C",
"++	c #221F26",
"@+	c #242028",
"#+	c #7A777D",
"$+	c #FFFFFF",
"%+	c #817D84",
"&+	c #2E2734",
"*+	c #312A36",
"=+	c #302A35",
"-+	c #2F2934",
";+	c #232026",
">+	c #19171C",
",+	c #1D1A20",
"'+	c #2C2631",
")+	c #5A555E",
"!+	c #A8A6AB",
"~+	c #ACA9AE",
"{+	c #B1AFB4",
"]+	c #605B65",
"^+	c #312B38",
"/+	c #332C39",
"(+	c #322B38",
"_+	c #312B36",
":+	c #302A34",
"<+	c #211D23",
"[+	c #2A252E",
"}+	c #2F2834",
"|+	c #342E3A",
"1+	c #362F3B",
"2+	c #37303D",
"3+	c #362F3D",
"4+	c #352E3C",
"5+	c #342D3A",
"6+	c #312B37",
"7+	c #1D1A1F",
"8+	c #302A36",
"9+	c #322C38",
"0+	c #342D3B",
"a+	c #362F3C",
"b+	c #38313F",
"c+	c #37303E",
"d+	c #352F3B",
"e+	c #2D2731",
"f+	c #1E1A21",
"g+	c #342E3B",
"h+	c #38303F",
"i+	c #3A3241",
"j+	c #3B3242",
"k+	c #3A3343",
"l+	c #393140",
"m+	c #232027",
"n+	c #3C3443",
"o+	c #3D3445",
"p+	c #3D3545",
"q+	c #3D3444",
"r+	c #372F3D",
"s+	c #352E3B",
"t+	c #322B37",
"u+	c #1F1C23",
"v+	c #2C2730",
"w+	c #2E2834",
"x+	c #3B3443",
"y+	c #3E3545",
"z+	c #3F3647",
"A+	c #3E3646",
"B+	c #3C3444",
"C+	c #332C38",
"D+	c #2F2935",
"E+	c #201C23",
"F+	c #211D25",
"G+	c #241F28",
"H+	c #28232D",
"I+	c #2A252F",
"J+	c #312A37",
"K+	c #352D3C",
"L+	c #332D3A",
"M+	c #302936",
"N+	c #221E26",
"O+	c #1E1B22",
"P+	c #27232C",
"Q+	c #2A242F",
"R+	c #332B38",
"S+	c #37303F",
"T+	c #3B3342",
"U+	c #383140",
"V+	c #352F3C",
"W+	c #342C39",
"X+	c #2B2530",
"Y+	c #231F27",
"  . + + + + + + + + + + + + + + + + + + + + @ # ",
"$ % & & & & & & & & & & & & & & & & & & & & * @ ",
"# = - - - - - ; - - > , > > ' - ) - - - - - ! ~ ",
"# = - ; { - ] ^ / ( ( _ _ : ( ( ^ ] ' < ; - ! ~ ",
"# [ - ; ' } ( : | | 1 2 2 1 | | : ( ^ > { 3 4 ~ ",
"5 6 { ] ( 7 1 8 9 0 a a a a b 9 8 1 c : ^ ' ! ~ ",
"# d ( e 1 0 a f g h h i i j h h k l b 2 e : - m ",
"n o e 2 p q j i r s t u v t s w w i x q a y ( z ",
"A B C D E b w s u v F F F G H F I J 0 K L M N O ",
"O P q Q R S T U V V W X F Y Z `  ...+.@.#.$.%.&.",
"*.=.h -.;.>.,.'.).!.~.{.].^././.(._.:.<.[.@.z O ",
"}.|.r 1.2.3.4.5.6.7.8.9.9.9.0.a.b.c.d.e.f.[.g.*.",
"h.i.F V j.k.l.m.n.o.p.q.r.p.n.n.7.a.s.(.e.<.t.z ",
"u.v.w.x.y.z.A.B.C.0.D.E.F.G.{.H.I.J.a.s.d.K.L.M.",
"N.O.d.6.P.Z Q.R.S.T.U.V.W.X.W.Y.G.q.n.Z.`.d. +.+",
"M.[.++@+@+p.p.#+$+$+$+%+&+*+=+-+W.F.E.n.a.;+:.+.",
">+,+@+0.p.{.'+)+!+~+{+]+^+/+(+_+:+X.F.r.9.a.<+[.",
".+f.a.n.[+Y.}+_+|+1+2+3+4+4+5+/+6+=+W.{.p.7.d.7+",
"+.:.7.p.F.X.8+9+0+a+2+b+b+c+3+d+/+6+-+e+[+9.c.f+",
"[.e.n.[+W.=+(+g+3+h+i+j+k+i+l+c+4+/+_+X.{.p.m+f.",
"L.d.n.G.X._+5+a+h+i+n+o+p+q+j+l+r+s+t+-+Y.H.@+u+",
"L.d.p.v+w+t+0+3+l+x+y+z+z+A+B+i+c+4+C+D+W.[+@+E+",
",+:.F+G+0.H+I+W.}+J+/+K+K+L+(+M+X.G.H.9.b.N+O+d.",
"  c.C.P+Q+W.D+R+g+S+i+B+o+T+U+V+W+8+X.X+H+0.@+Y+"};
